<?xml version="1.0" encoding="UTF-8"?>
<!DOCTYPE svg PUBLIC "-//W3C//DTD SVG 1.1//EN" "http://www.w3.org/Graphics/SVG/1.1/DTD/svg11.dtd">
<svg version="1.1" xmlns="http://www.w3.org/2000/svg" xmlns:xlink="http://www.w3.org/1999/xlink" x="0" y="0" width="1643" height="1704" viewBox="0, 0, 1643, 1704">
  <defs>
    <clipPath id="Clip_1">
      <path d="M0,0.19 L1642.07,0.19 L1642.07,1703.94 L0,1703.94 z"/>
    </clipPath>
  </defs>
  <g id="Layer_1">
    <g clip-path="url(#Clip_1)">
      <path d="M1156.27,909.754 C1123.2,927.823 1087.56,938.949 1051.33,948.451 C1016.42,957.608 981.188,965.372 945.699,971.963 C944.72,972.145 943.488,972.117 942.832,972.7 C938.218,976.803 934.121,973.765 929.815,972.055 C902.274,961.114 880.432,966.931 861.085,990.722 C850.066,1004.27 843.323,1019.55 844.322,1037.51 C844.518,1041.04 845,1044.59 846.458,1047.71 C848.036,1051.1 846.997,1053.09 844.635,1055.49 C826.522,1073.88 808.528,1092.39 790.491,1110.86 C785.316,1116.16 783.303,1122.53 783.306,1129.89 C783.368,1251.87 783.321,1373.86 783.46,1495.84 C783.465,1500.64 782.675,1502.67 777.391,1502.09 C772.452,1501.54 767.401,1501.86 762.407,1502.02 C760.022,1502.1 759.02,1501.36 759.333,1498.94 C759.459,1497.96 759.353,1496.94 759.353,1495.94 C759.353,1285.81 759.353,1075.67 759.353,865.532 C759.353,863.774 759.353,862.016 759.353,859.036 C773.485,878.292 792.603,881.504 813.345,880.068 C816.738,879.833 818.348,880.251 817.328,884.03 C816.897,885.629 816.708,887.3 816.498,888.949 C815.61,895.92 818.292,899.171 825.301,899.943 C866.497,904.48 907.667,909.281 948.893,913.535 C977.692,916.506 1006.38,920.992 1035.36,921.784 C1073.87,922.836 1111.62,916.615 1149.08,908.352 C1152.74,907.546 1156.39,906.733 1160.25,905.878 C1159.9,908.697 1157.76,908.94 1156.27,909.754 z M1580.1,460.958 C1595.11,419.67 1595.23,377.217 1588.85,334.356 C1587.62,326.142 1584.31,318.358 1584.23,309.918 C1583.88,273.244 1581.09,236.822 1574.29,200.694 C1566.99,161.908 1550.15,129.059 1519.42,103.321 C1477.87,68.515 1431.45,42.525 1380.81,23.802 C1337.02,7.615 1291.99,-1.783 1245.03,0.54 C1176.34,3.938 1113.5,25.348 1055.68,62.215 C1021.48,84.02 996.098,112.838 982.459,151.563 C974.828,173.229 968.175,195.131 963.351,217.576 C962.504,221.519 960.804,224.351 957.529,226.85 C943.357,237.669 929.666,249.079 917.247,261.923 C911.45,267.918 905.827,274.109 902.455,281.869 C897.937,292.266 902.677,300.98 913.731,303.133 C917.539,303.874 921.311,303.842 925.155,303.493 C933.43,302.742 941.474,300.727 949.412,299.049 C949.716,299.396 949.908,299.533 949.886,299.602 C949.479,300.869 949.042,302.125 948.621,303.388 C941.889,323.559 938.18,344.291 937.237,365.517 C935.704,400.051 938.038,434.059 951.405,466.498 C952.144,468.29 951.974,469.37 950.602,470.792 C939.716,482.079 936.828,495.904 938.497,510.94 C940.571,529.623 950.334,542.257 968.461,548.154 C973.549,549.809 978.731,551.02 983.998,551.678 C986.783,552.026 987.927,552.864 988.402,555.761 C990.504,568.563 993.255,581.243 996.411,593.827 C1005.91,631.717 1018.75,668.299 1039.27,701.813 C1063.28,741.031 1095.08,771.091 1139.24,786.556 C1140.31,786.931 1141.58,787.119 1141.77,788.748 C1110.18,794.399 1078.56,800.002 1046.45,802.128 C1021.98,803.749 997.495,802.954 973.02,802.779 C953.884,802.642 934.748,802.062 915.617,801.497 C889.334,800.721 863.058,799.647 836.771,799.051 C833.259,798.972 832.31,797.787 831.599,794.921 C829.48,786.374 827.137,777.873 823.381,769.872 C815.423,752.92 803.528,739.874 784.511,736.319 C760.61,731.852 737.347,736.219 715.331,745.808 C701.937,751.642 698.923,759.535 701.87,774.424 C699.839,774.424 697.89,774.424 695.942,774.424 C494.801,774.424 293.66,774.423 92.519,774.425 C82.565,774.425 80.611,776.401 80.611,786.435 C80.611,1023.07 80.599,1259.71 80.704,1496.34 C80.706,1500.73 79.853,1502.21 75.127,1502.11 C59.97,1501.76 44.799,1501.91 29.635,1502 C19.597,1502.06 11.403,1506.21 6.068,1514.68 C-1.78,1527.14 -1.966,1540.26 5.223,1553.01 C10.315,1562.04 18.592,1566.68 29.095,1566.94 C32.093,1567.02 35.158,1567.34 38.08,1566.87 C43.121,1566.05 44.203,1568.42 44.303,1572.81 C44.584,1585.12 45.057,1597.44 45.69,1609.74 C45.84,1612.66 45.376,1615.19 44.217,1617.86 C34.484,1640.25 36.569,1661.64 51.635,1680.81 C66.474,1699.69 86.573,1706.72 110.214,1702.8 C136.961,1698.37 158.439,1673.95 159.412,1647.36 C160.514,1617.22 141.889,1591.52 114.062,1584.79 C105.266,1582.66 105.266,1582.66 105.569,1573.6 C105.791,1566.96 105.791,1566.95 112.27,1566.95 C325.909,1566.95 539.549,1566.95 753.188,1566.95 C754.188,1566.95 755.202,1567.06 756.185,1566.93 C758.971,1566.57 759.878,1567.64 759.955,1570.51 C760.227,1580.65 760.718,1590.8 761.285,1600.93 C761.714,1608.58 760.867,1615.71 758.102,1623.17 C742.584,1665.06 777.543,1708.83 821.87,1703.57 C850.407,1700.19 872.984,1676.94 875.208,1648.66 C877.5,1619.5 859.626,1593.54 831.687,1585.17 C828.262,1584.15 823.214,1585.27 821.704,1582.21 C820.194,1579.16 821.71,1574.72 821.428,1570.92 C821.165,1567.38 822.708,1566.86 825.773,1566.89 C839.603,1567.03 853.468,1566.36 867.259,1567.1 C885.478,1568.08 899.224,1555.43 900.102,1536.54 C901.108,1514.89 886.406,1501.02 868.344,1501.91 C860.53,1502.3 852.666,1501.68 844.856,1502.09 C840.23,1502.34 839.23,1500.89 839.235,1496.41 C839.365,1379.26 839.375,1262.11 839.214,1144.95 C839.207,1139.81 840.869,1136.36 844.357,1132.85 C862.082,1115 879.64,1096.99 897.108,1078.89 C899.178,1076.75 900.559,1076.66 902.946,1078.1 C909.725,1082.19 917.268,1084.38 924.979,1085.71 C938.047,1087.96 949.707,1084.83 959.705,1075.83 C960.321,1075.27 961.483,1071.18 963.333,1075.03 C965.533,1079.62 969.251,1080.51 973.737,1079.67 C1017.21,1071.55 1060.64,1063.18 1103.75,1053.29 C1121.02,1049.33 1138.21,1045.05 1154.48,1040.28 C1154.48,1056.55 1154.74,1072.68 1154.43,1088.81 C1153.57,1133.42 1152.48,1178.02 1151.5,1222.62 C1151.4,1227.32 1153.38,1230.65 1158.18,1231.87 C1163.01,1233.09 1167.81,1234.55 1172.71,1235.39 C1175.52,1235.87 1176.53,1237.27 1177.18,1239.73 C1191.77,1294.92 1213.01,1347.5 1239.74,1397.89 C1240.89,1400.07 1241.19,1401.96 1240.67,1404.46 C1233.4,1439.63 1226.3,1474.84 1219.11,1510.02 C1212.15,1544.08 1205.1,1578.11 1198.22,1612.18 C1197.51,1615.72 1196.67,1617.28 1192.36,1617.13 C1178.35,1616.63 1164.35,1617.32 1151.12,1622.71 C1133.75,1629.78 1128.35,1643.97 1136.55,1660.73 C1137.78,1663.26 1139.28,1665.69 1140.91,1667.98 C1149.92,1680.59 1162.81,1687.64 1176.97,1692.7 C1196.41,1699.64 1216.7,1702.16 1237.14,1703.74 C1244.52,1704.31 1251.74,1703.37 1258.59,1700.26 C1271.93,1694.2 1279.53,1683.32 1284.38,1670.02 C1284.93,1668.49 1284.47,1666.17 1286.97,1665.7 C1291.62,1664.82 1293.2,1661.37 1294.32,1657.27 C1302.6,1626.96 1310.98,1596.69 1319.34,1566.41 C1322.6,1554.59 1325.9,1542.79 1329.29,1530.61 C1330.19,1531.47 1330.71,1531.88 1331.13,1532.38 C1352.64,1557.65 1375.71,1581.4 1400.47,1603.49 C1402.45,1605.26 1403.02,1606.8 1402.46,1609.46 C1399.65,1622.88 1398.46,1636.47 1399.31,1650.18 C1399.78,1657.86 1401.2,1665.36 1404.8,1672.3 C1410.36,1683.04 1420.53,1687.89 1432.3,1685.19 C1449.43,1681.27 1460.84,1670.06 1469.18,1655.36 C1482.22,1632.38 1488.17,1607.11 1490.98,1581.21 C1492.99,1562.69 1481.7,1546.77 1462.08,1537.61 C1458.45,1535.92 1455.81,1533.62 1453.52,1530.44 C1422.66,1487.6 1394.99,1442.75 1368.82,1396.94 C1367.32,1394.31 1367.43,1392.13 1368.17,1389.44 C1383.32,1334.68 1398.46,1279.91 1413.42,1225.1 C1414.75,1220.2 1416.61,1216.9 1421.98,1215.8 C1426.01,1214.97 1429.84,1213.17 1433.71,1211.68 C1443.41,1207.94 1444.26,1206.86 1443.14,1196.57 C1439.5,1162.98 1435.72,1129.4 1431.93,1095.83 C1427.78,1059.11 1423.63,1022.39 1419.34,985.687 C1415,948.496 1412.15,911.118 1406.15,874.137 C1401.26,843.971 1393.28,814.679 1378.09,787.821 C1376.66,785.293 1377.3,784.587 1379.61,783.585 C1387.71,780.073 1395.4,775.764 1402.76,770.888 C1437.16,748.107 1460.37,716.045 1477.99,679.521 C1496.47,641.225 1507.51,600.559 1515.17,558.904 C1515.81,555.427 1516.75,553.875 1520.66,553.688 C1529.13,553.283 1537.58,552.378 1545.96,550.921 C1580.86,544.851 1598.46,510.813 1581.31,480.7 C1577.14,473.372 1577.46,468.242 1580.1,460.958" fill="#6E4100"/>
    </g>
    <path d="M1642.07,1582.97 C1641.67,1600.36 1637.19,1613.34 1628.25,1624.68 C1624.36,1629.61 1618.16,1630.53 1613.74,1627.05 C1609.2,1623.47 1608.66,1617.64 1612.4,1612.38 C1624.78,1594.95 1625.2,1577.35 1613.48,1562.73 C1610.67,1559.22 1607.31,1556.25 1603.83,1553.38 C1599.28,1549.63 1598.57,1543.51 1601.92,1539.16 C1605.12,1535.03 1611.11,1534.22 1615.81,1537.28 C1631.08,1547.26 1642.05,1567.58 1642.07,1582.97" fill="#EF6F63"/>
    <path d="M1585.63,1581.55 C1585.56,1600.85 1580.66,1613.65 1571.76,1625 C1568.88,1628.67 1565.01,1629.84 1560.62,1628.66 C1556.75,1627.61 1554.6,1624.75 1553.77,1620.84 C1553.1,1617.63 1554.33,1615 1556.1,1612.49 C1571.27,1591.03 1568.6,1570.73 1548.43,1554.11 C1543.05,1549.68 1541.97,1544.1 1545.55,1539.28 C1548.99,1534.66 1555.4,1534 1560.61,1538.11 C1576.16,1550.4 1585.56,1565.97 1585.63,1581.55" fill="#EF6F63"/>
    <path d="M419.821,1141.85 C314.019,1141.85 208.217,1141.81 102.415,1141.97 C97.522,1141.98 96.476,1140.71 96.482,1135.95 C96.628,1022.82 96.638,909.686 96.46,796.553 C96.452,791.275 98.007,790.355 102.865,790.363 C188.673,790.509 274.481,790.51 360.288,790.36 C365.069,790.351 366.487,791.479 366.366,796.372 C366.018,810.526 366.298,824.694 366.205,838.856 C366.181,842.402 366.647,845.598 370.054,847.41 C373.513,849.249 376.941,848.672 379.841,846.227 C382.858,843.684 385.517,843.465 388.551,846.185 C393.548,850.664 398.781,850.596 403.748,846.171 C406.821,843.433 409.447,843.673 412.425,846.273 C417.471,850.677 422.675,850.549 427.633,846.098 C430.478,843.544 433.058,843.604 435.885,846.074 C441.061,850.598 446.342,850.654 451.51,846.049 C454.346,843.521 456.784,843.997 459.834,846.038 C467.452,851.136 473.781,847.811 473.907,838.617 C474.105,824.124 474.088,809.624 473.879,795.131 C473.825,791.36 474.974,790.39 478.67,790.394 C565.478,790.491 652.285,790.492 739.093,790.39 C742.732,790.386 743.424,791.59 743.422,794.939 C743.342,909.072 743.324,1023.2 743.472,1137.34 C743.478,1141.83 741.614,1141.9 738.226,1141.9 C632.091,1141.84 525.956,1141.85 419.821,1141.85" fill="#F0DAAE"/>
    <path d="M419.875,1501.96 C314.063,1501.96 208.25,1501.92 102.437,1502.08 C97.55,1502.08 96.476,1500.8 96.483,1496.03 C96.628,1385.72 96.637,1275.41 96.465,1165.1 C96.457,1159.92 97.855,1158.88 102.796,1158.89 C188.613,1159.05 274.43,1159.05 360.246,1158.9 C364.921,1158.89 366.506,1159.8 366.374,1164.8 C366,1178.96 366.295,1193.13 366.206,1207.29 C366.184,1210.83 366.645,1213.97 370.023,1215.87 C373.511,1217.84 376.85,1217.17 379.786,1214.8 C382.741,1212.42 385.315,1211.77 388.445,1214.66 C393.597,1219.41 399.009,1218.9 404.123,1214.5 C406.808,1212.18 409.125,1212.06 411.856,1214.45 C417.152,1219.08 422.661,1219.22 427.965,1214.44 C430.7,1211.98 433.143,1212.23 435.753,1214.51 C441.145,1219.23 446.556,1219.05 451.853,1214.36 C454.36,1212.15 456.641,1212.07 459.275,1214.28 C462.232,1216.77 465.642,1218 469.435,1216.08 C473.505,1214.02 473.946,1210.2 473.953,1206.25 C473.976,1192.09 474.075,1177.92 473.886,1163.76 C473.838,1160.14 474.699,1158.92 478.566,1158.92 C565.383,1159.03 652.199,1159.03 739.016,1158.93 C742.546,1158.93 743.431,1159.92 743.428,1163.39 C743.34,1274.7 743.326,1386.01 743.465,1497.32 C743.47,1501.63 741.844,1502.02 738.314,1502.02 C642.499,1501.95 546.684,1501.96 450.869,1501.96 C440.538,1501.96 430.207,1501.96 419.875,1501.96" fill="#F0DAAE"/>
    <path d="M1126.04,280.129 C1124.73,282.78 1123.31,285.381 1122.15,288.094 C1120.56,291.817 1121.8,294.733 1125.44,296.242 C1128.97,297.705 1131.77,296.199 1133.14,292.835 C1134.85,288.635 1137.53,285.377 1141.35,283.109 C1147.06,279.721 1152.47,280.944 1157.23,286.533 C1158.52,288.049 1159.58,289.806 1161.04,291.122 C1162.78,292.693 1165.03,292.764 1167.15,291.84 C1169.55,290.795 1170.81,288.752 1170.39,286.225 C1169.91,283.245 1170.9,282.638 1173.71,282.919 C1198.72,285.412 1223.62,288.809 1248.51,292.231 C1251.42,292.631 1252.65,294.795 1254.17,296.707 C1277.5,326.006 1305.63,349.089 1340.58,363.306 C1343.19,364.369 1345.83,365.388 1348.52,366.227 C1355.33,368.351 1360.85,363.547 1359.12,356.606 C1355.9,343.67 1353.81,330.552 1351.76,317.404 C1349.98,305.963 1349.88,306.794 1361.41,306.461 C1370.03,306.212 1375.53,309.367 1381.45,315.228 C1415.56,349.043 1453.89,376.808 1499.08,394.231 C1502.79,395.664 1506.51,397.17 1510.34,398.235 C1513.23,399.04 1514.25,400.39 1514.15,403.461 C1512.21,467.79 1506.92,531.729 1491.13,594.362 C1481.12,634.055 1467.25,672.239 1444.13,706.456 C1420.73,741.104 1390.28,766.448 1349.16,777.494 C1333.95,781.579 1318.33,782.443 1302.75,783.844 C1264.73,787.265 1226.97,783.98 1189.15,780.378 C1161.88,777.781 1136.22,770.883 1112.89,756.233 C1085.42,738.979 1065.21,715.003 1049.27,687.154 C1029.07,651.885 1016.93,613.662 1008.34,574.187 C998.371,528.356 993.717,481.879 991.856,435.082 C990.57,402.758 990.88,370.5 996.309,338.482 C999.236,321.222 1003.59,304.363 1010.13,288.086 C1011.05,285.82 1012.15,284.532 1014.61,284.188 C1051.33,279.058 1088.21,277.904 1125.21,279.59 C1125.48,279.602 1125.73,279.92 1126.04,280.129" fill="#FEF5E2"/>
    <path d="M1243.12,846.762 C1248.13,837.817 1253.16,828.881 1258.14,819.917 C1258.97,818.425 1260.41,818.086 1261.79,817.53 C1275.66,811.926 1289.53,806.297 1303.42,800.713 C1309.76,798.163 1316.57,798.979 1323.15,798.295 C1334.94,797.068 1346.55,795.082 1357.87,791.631 C1360.92,790.699 1361.96,791.799 1363.27,794.061 C1374.47,813.412 1381.15,834.418 1386.24,856.03 C1392.12,881.049 1394.45,906.58 1397.29,932.042 C1400.77,963.302 1404.32,994.556 1407.85,1025.81 C1410.94,1053.1 1414.09,1080.37 1417.15,1107.66 C1420.33,1136.11 1423.37,1164.57 1426.67,1193.01 C1427.03,1196.13 1426.35,1197.39 1423.45,1198.43 C1390,1210.51 1355.63,1218.8 1320.44,1223.81 C1292.51,1227.78 1264.44,1228.85 1236.25,1227.97 C1230.96,1227.8 1229.76,1226.21 1229.77,1221.12 C1229.94,1151.97 1229.94,1082.82 1229.77,1013.67 C1229.76,1009.14 1231.24,1006.96 1235.13,1004.89 C1275.41,983.416 1312.93,957.972 1346.55,926.948 C1349.09,924.599 1351.3,922.08 1350.93,918.436 C1350.61,915.273 1348.89,912.924 1345.73,911.703 C1342.33,910.385 1339.56,911.37 1337.07,913.697 C1301.27,947.153 1260.79,973.819 1217.33,996.132 C1184.81,1012.83 1151.03,1025.99 1115.26,1034.19 C1070.51,1044.44 1025.56,1053.62 980.452,1062.11 C977.203,1062.72 976.162,1062.03 975.317,1059.02 C968.95,1036.28 962.493,1013.57 955.882,990.907 C954.873,987.449 955.489,986.433 959.12,985.717 C1006.77,976.318 1054.21,965.94 1100.43,950.783 C1159.04,931.56 1210.93,900.874 1255.67,858.296 C1259.4,854.743 1263.02,851.049 1266.46,847.217 C1269.82,843.474 1269.64,838.65 1266.37,835.572 C1263.08,832.483 1258.34,832.692 1254.78,836.26 C1251.14,839.907 1247.63,843.69 1244.07,847.414 C1243.75,847.197 1243.44,846.979 1243.12,846.762" fill="#CCDAB3"/>
    <path d="M1401.44,188.999 C1401.44,194.093 1401.31,202.588 1401.5,211.076 C1401.58,214.241 1400.64,214.657 1397.86,213.709 C1370.14,204.244 1341.8,197.068 1313.07,191.471 C1273.98,183.86 1234.57,179.141 1194.75,177.755 C1161.24,176.59 1127.9,178.032 1094.72,182.824 C1091.29,183.318 1090.8,182.256 1091.31,179.23 C1096.21,150.212 1101.68,121.363 1111.49,93.467 C1118.07,74.72 1130.89,61.598 1147.24,51.394 C1177.22,32.677 1210.13,22.319 1245.03,18.006 C1269.79,14.946 1294.36,15.89 1317.64,25.629 C1362.2,44.262 1388.02,78.079 1396.19,125.474 C1399.61,145.351 1400.44,165.485 1401.44,188.999" fill="#FEFEFE"/>
    <path d="M1246.4,1375.44 C1239.75,1363 1234.44,1351.24 1229.23,1339.42 C1215.68,1308.64 1204.21,1277.11 1195.13,1244.72 C1193.65,1239.43 1193.71,1239.41 1199.08,1240.2 C1232.85,1245.22 1266.72,1245.41 1300.66,1242.23 C1332.56,1239.25 1363.85,1233.12 1394.7,1224.59 C1395.3,1224.43 1395.91,1224.3 1397.17,1224 C1393.37,1237.89 1389.74,1251.3 1386.05,1264.69 C1351.45,1390.02 1316.84,1515.34 1282.24,1640.66 C1281.97,1641.62 1281.51,1642.56 1281.41,1643.53 C1281.11,1646.43 1279.72,1646.53 1277.37,1645.54 C1257.01,1636.93 1236.63,1628.35 1216.2,1619.89 C1213.61,1618.82 1213.35,1617.65 1213.88,1615.04 C1229.64,1538.65 1245.3,1462.24 1260.94,1385.82 C1268.2,1350.3 1275.37,1314.77 1282.69,1279.26 C1283.39,1275.88 1282.88,1273.08 1280.91,1270.33 C1278.58,1267.09 1276.5,1263.66 1274.11,1260.47 C1271.2,1256.6 1266.76,1255.74 1263.1,1258.1 C1259.18,1260.61 1257.6,1265.72 1260.99,1269.36 C1266.88,1275.69 1265.86,1282.26 1264.29,1289.63 C1258.43,1317.12 1252.91,1344.68 1247.26,1372.21 C1247.13,1372.84 1246.93,1373.46 1246.4,1375.44" fill="#F0DAAE"/>
    <path d="M1455.23,254.215 C1442.02,269.492 1425.7,279.04 1407.05,284.784 C1387,290.954 1366.45,291.769 1345.76,289.621 C1301.72,285.051 1258.18,276.903 1214.27,271.362 C1165.31,265.183 1116.22,261.443 1066.82,263.351 C1024.2,264.997 982.508,272.091 941.648,284.251 C935.414,286.106 928.958,286.95 922.513,287.7 C921.171,287.857 919.288,288.572 918.477,286.978 C917.803,285.657 919.269,284.578 920.017,283.539 C927.471,273.169 936.879,264.664 946.578,256.545 C957.655,247.272 967.968,236.798 981.253,230.591 C1009.59,217.35 1039.51,208.98 1070.13,203.037 C1102.07,196.838 1134.32,193.579 1166.87,193.56 C1263.19,193.502 1356.14,210.344 1444.7,249.09 C1448.18,250.61 1451.53,252.406 1455.23,254.215" fill="#CCDAB3"/>
    <path d="M449.885,1550.95 C311.073,1550.95 172.261,1550.95 33.449,1550.95 C19.071,1550.95 11.557,1538.32 18.273,1525.35 C20.68,1520.71 24.545,1518.14 29.861,1517.97 C31.193,1517.93 32.527,1517.96 33.86,1517.96 C311.484,1517.96 589.108,1518.05 866.732,1517.73 C883.359,1517.71 886.607,1532.32 882.627,1542.47 C880.518,1547.84 876.439,1551.04 870.321,1550.95 C868.821,1550.93 867.321,1550.95 865.821,1550.95 C727.176,1550.95 588.531,1550.95 449.885,1550.95" fill="#CCDAB3"/>
    <path d="M1173.42,799.127 C1171.22,808.479 1171.67,817.125 1175.42,825.474 C1175.99,826.751 1176.07,827.849 1175.52,829.24 C1168.32,847.311 1165.13,866.332 1162.53,885.464 C1162.17,888.126 1161.11,889.149 1158.73,889.704 C1118.46,899.079 1077.94,906.605 1036.35,905.843 C1016.52,905.48 996.901,902.465 977.21,900.439 C947.747,897.407 918.313,894.09 888.87,890.86 C871.339,888.936 853.821,886.89 836.282,885.045 C833.747,884.779 833.425,883.957 833.769,881.62 C836.793,861.05 839.699,840.462 842.591,819.873 C843.052,816.592 843.764,815.113 848.056,815.277 C879.656,816.485 911.281,817.048 942.888,818.087 C974.353,819.122 1005.83,819.497 1037.29,818.656 C1064.11,817.939 1090.62,813.86 1117.04,809.35 C1135.68,806.166 1154.26,802.615 1173.42,799.127" fill="#CCDAB3"/>
    <path d="M1364.54,35.099 C1378.83,39.808 1392.07,45.078 1405.06,50.949 C1442.1,67.684 1476.43,88.615 1507.86,114.603 C1536.1,137.957 1551.76,167.684 1558.4,203.179 C1563.71,231.556 1566.78,260.104 1567.65,288.923 C1567.73,291.738 1568.55,294.532 1567.88,297.436 C1566.13,298.256 1565.16,296.691 1564.08,295.934 C1520.46,265.438 1473.17,242.008 1423.62,222.971 C1418.85,221.139 1417.2,218.945 1417.29,213.726 C1417.79,183.906 1416.53,154.172 1412.35,124.577 C1407.44,89.883 1391.87,60.949 1366.36,37.173 C1365.89,36.739 1365.51,36.213 1364.54,35.099" fill="#CCDAB3"/>
    <path d="M1393.94,304.424 C1417.03,300.139 1437.43,291.759 1454.98,277.115 C1459.72,273.159 1464.32,269.014 1467.93,263.995 C1470,261.128 1471.92,260.861 1475,262.381 C1507.16,278.269 1537.83,296.616 1566.88,317.671 C1568.74,319.021 1569.25,320.708 1569.75,322.638 C1576.81,350.195 1577.67,378.168 1575.57,406.375 C1574.31,423.404 1570.75,439.893 1565.16,456.013 C1563.65,460.392 1562.09,461.638 1557.46,459.277 C1549.53,455.235 1540.72,453.814 1531.9,453.188 C1528.74,452.963 1528,451.903 1528.15,448.977 C1528.88,435.194 1529.49,421.405 1530.01,407.613 C1530.11,404.991 1530.78,404.411 1533.52,404.751 C1538.36,405.354 1542.33,402.109 1542.9,397.826 C1543.44,393.746 1540.71,390.099 1535.9,388.938 C1486.05,376.9 1444.14,350.642 1406.49,316.764 C1402.32,313.021 1397.81,309.611 1393.94,304.424" fill="#BB9D8D"/>
    <path d="M799.348,1313.32 C799.348,1253.16 799.425,1193.01 799.226,1132.86 C799.207,1127.01 801.002,1122.76 805.002,1118.71 C829.239,1094.19 853.336,1069.52 877.472,1044.89 C880.268,1042.04 882.973,1039.1 885.795,1036.27 C888.957,1033.11 892.857,1032.02 897.235,1032.59 C901.677,1033.17 905.109,1035.25 906.777,1039.57 C908.434,1043.86 906.111,1046.86 903.314,1049.72 C878.04,1075.56 852.83,1101.46 827.466,1127.21 C824.387,1130.34 823.281,1133.6 823.284,1137.88 C823.36,1257.18 823.314,1376.49 823.457,1495.8 C823.463,1500.67 822.572,1502.66 817.323,1502.07 C812.715,1501.55 807.989,1501.73 803.343,1502.04 C799.893,1502.26 799.224,1500.89 799.284,1497.78 C799.463,1488.45 799.348,1479.12 799.348,1469.78 C799.348,1417.63 799.348,1365.47 799.348,1313.32" fill="#D1D2D2"/>
    <path d="M980.731,212.778 C983.053,204.087 985.061,196.085 987.336,188.159 C992.476,170.246 998.823,152.794 1006.94,135.973 C1017.2,114.698 1033.16,98.536 1051.84,84.675 C1075.07,67.424 1100.39,53.932 1127.15,43.073 C1128.31,42.602 1129.43,41.546 1131.15,42.313 C1126.53,46.405 1121.93,50.343 1117.48,54.43 C1103.82,66.967 1097.52,83.564 1092.19,100.661 C1084.32,125.955 1079.46,151.917 1075.35,178.033 C1074.15,185.68 1074.3,185.688 1066.39,187.306 C1038.34,193.038 1010.8,200.5 984.336,211.586 C983.468,211.95 982.545,212.183 980.731,212.778" fill="#CCDAB3"/>
    <path d="M1360.73,1416.66 C1362.94,1417.97 1363.42,1419.83 1364.31,1421.34 C1388.01,1461.85 1412.83,1501.65 1440.46,1539.63 C1442.32,1542.19 1442.36,1543.92 1440.58,1546.58 C1431.52,1560.14 1422.63,1573.81 1413.85,1587.55 C1411.94,1590.53 1410.85,1591.46 1407.7,1588.57 C1382.38,1565.36 1358.74,1540.58 1336.79,1514.17 C1335.28,1512.35 1334.66,1510.73 1335.32,1508.36 C1343.8,1477.95 1352.19,1447.51 1360.73,1416.66" fill="#F0DAAE"/>
    <path d="M1213.7,1121.23 C1213.7,1154.37 1213.61,1187.51 1213.81,1220.66 C1213.84,1225.34 1212.63,1226.06 1208.17,1225.39 C1196.16,1223.6 1184.22,1221.55 1172.35,1218.97 C1168.96,1218.23 1167.73,1216.97 1167.82,1213.38 C1168.76,1174.94 1169.5,1136.5 1170.35,1098.07 C1170.8,1078.1 1171.47,1058.15 1171.8,1038.18 C1171.85,1034.91 1173.09,1033.63 1175.91,1032.46 C1186.96,1027.86 1197.97,1023.15 1208.82,1018.11 C1212.93,1016.19 1213.79,1016.92 1213.77,1021.29 C1213.65,1054.6 1213.7,1087.91 1213.7,1121.23" fill="#CCDAB3"/>
    <path d="M796.522,805.506 C796.632,798.619 796.278,790.959 794.251,783.52 C791.491,773.395 785.932,765.876 774.937,763.602 C766.584,761.875 759.833,764.339 754.709,771.078 C753.456,772.726 752.516,774.086 750.037,773.934 C742.568,773.476 735.082,773.313 727.603,773.014 C726.607,772.974 725.57,772.965 724.632,772.68 C721.034,771.586 717.163,770.068 716.69,766.018 C716.254,762.28 720.116,760.98 722.941,759.841 C740.314,752.84 758.42,749.517 777.085,751.206 C791.422,752.504 800.847,761.435 807.363,773.721 C812.791,783.958 814.916,795.317 818.217,806.274 C819.08,809.137 819.511,812.221 820.862,814.829 C825.203,823.206 825.662,831.734 823.544,840.827 C822.04,847.282 821.503,853.964 820.595,860.554 C820.361,862.252 820.347,863.746 817.936,863.88 C808.294,864.415 798.628,865.256 789.239,862.152 C777.671,858.328 770.354,850.569 768.548,838.338 C766.703,825.838 765.074,813.3 763.653,800.745 C762.992,794.911 764.021,789.126 766.104,783.608 C766.858,781.612 767.624,779.231 770.241,779.158 C772.841,779.086 775.061,780.239 776.512,782.579 C779.43,787.285 779.927,792.613 780.31,797.918 C780.777,804.385 780.862,810.88 781.334,817.346 C781.761,823.185 785.184,826.324 790.207,825.868 C794.902,825.443 797.631,821.775 797.302,816.245 C797.105,812.926 796.824,809.612 796.522,805.506" fill="#FEF5E2"/>
    <path d="M1187.36,1632.93 C1200.51,1633.07 1211.1,1634.5 1221.38,1639.28 C1236.26,1646.19 1251.56,1652.21 1266.78,1658.35 C1270.03,1659.66 1270.58,1661.01 1269.41,1664.18 C1265.25,1675.49 1259.02,1684.7 1246.34,1687.37 C1240.07,1688.69 1233.74,1687.44 1227.48,1686.76 C1208.1,1684.68 1188.93,1681.71 1171.27,1672.75 C1163.29,1668.7 1156.37,1663.39 1151.9,1655.38 C1146.44,1645.59 1148.3,1640.58 1158.98,1636.87 C1168.85,1633.43 1179.15,1633.02 1187.36,1632.93" fill="#FEFEFE"/>
    <path d="M1415.12,1640.27 C1415.03,1630.4 1416.62,1620.72 1418.39,1611.06 C1418.73,1609.18 1419.8,1607.7 1420.79,1606.18 C1431.78,1589.33 1442.85,1572.54 1453.72,1555.62 C1455.47,1552.91 1456.77,1552.54 1459.56,1554.2 C1471.87,1561.56 1476.76,1571.64 1474.33,1586.12 C1471,1605.99 1466.68,1625.61 1457.28,1643.68 C1451.98,1653.88 1445.37,1662.97 1434.37,1667.75 C1424.35,1672.1 1420.09,1670 1417.03,1659.55 C1415.19,1653.24 1415.03,1646.77 1415.12,1640.27" fill="#FEFEFE"/>
    <path d="M911.643,1064.39 C912.625,1063.32 913.489,1062.32 914.413,1061.39 C923.537,1052.1 925.803,1041.63 920.875,1031.46 C916.032,1021.47 904.471,1015.34 892.684,1016.45 C885.443,1017.13 879.258,1019.95 874.159,1025.18 C869.894,1029.55 865.555,1033.86 860.802,1038.64 C859.657,1033.24 860.183,1028.54 861.498,1023.97 C865.854,1008.86 874.515,996.831 887.676,988.11 C896.456,982.292 905.863,981.38 915.841,984.279 C923.554,986.52 930.796,989.775 937.697,993.862 C939.656,995.022 940.856,996.422 941.504,998.736 C946.249,1015.69 951.13,1032.6 956.061,1049.5 C956.824,1052.12 956.479,1054.22 954.987,1056.51 C946.94,1068.83 937.138,1072.67 922.846,1068.79 C919.032,1067.75 915.197,1066.67 911.643,1064.39" fill="#FEF5E2"/>
    <path d="M992.718,288.302 C988.622,300.049 985.397,311.332 982.938,322.822 C979.387,339.422 977.418,356.211 976.232,373.141 C974.811,393.43 975.354,413.715 975.619,434.005 C975.7,440.15 976.141,446.291 976.459,452.431 C976.798,458.966 970.782,457.359 967.594,458.959 C964.395,460.564 964.836,456.616 964.248,455.053 C954.234,428.429 952.434,400.666 953.087,372.583 C953.67,347.451 957.994,323.062 967.134,299.547 C968.867,295.087 971.067,292.33 976.054,291.698 C980.811,291.095 985.471,289.738 990.177,288.721 C990.766,288.594 991.367,288.523 992.718,288.302" fill="#BB9D8D"/>
    <path d="M420.048,1158.96 C431.029,1158.96 442.012,1159.12 452.987,1158.88 C456.794,1158.79 457.83,1160.03 457.731,1163.72 C457.49,1172.69 457.611,1181.68 457.682,1190.67 C457.7,1192.89 457.581,1194.63 454.646,1194.41 C453.867,1194.36 452.805,1194.57 452.285,1195.08 C446.475,1200.77 440.971,1199.78 434.875,1195.2 C431.741,1192.84 428.055,1194.65 425.289,1197.02 C421.741,1200.06 418.511,1200.46 414.823,1197.21 C410.437,1193.36 405.766,1193.47 401.314,1197.21 C397.71,1200.23 394.312,1200.33 390.816,1197.07 C389.981,1196.29 388.881,1195.32 387.871,1195.28 C381.576,1195.05 382.142,1190.79 382.243,1186.46 C382.41,1179.31 382.577,1172.14 382.186,1165.01 C381.929,1160.33 383.098,1158.64 388.111,1158.84 C398.743,1159.24 409.401,1158.96 420.048,1158.96" fill="#CAA46F"/>
    <path d="M419.889,790.633 C431.053,790.633 442.219,790.726 453.381,790.575 C456.601,790.531 457.78,791.517 457.713,794.83 C457.533,803.824 457.614,812.825 457.677,821.823 C457.694,824.2 456.772,824.847 454.551,826.194 C447.176,830.67 440.752,831.798 433.316,826.215 C430.585,824.164 426.9,826.947 424.334,829.093 C421.325,831.609 418.716,831.946 415.646,829.184 C410.637,824.677 405.376,824.856 400.425,829.271 C397.334,832.028 394.673,831.677 391.744,829.14 C390.505,828.067 388.953,826.688 387.504,826.641 C381.464,826.44 382.228,822.358 382.267,818.434 C382.341,810.937 382.498,803.429 382.204,795.943 C382.046,791.909 383.086,790.412 387.399,790.532 C398.221,790.834 409.058,790.632 419.889,790.633" fill="#CAA46F"/>
    <path d="M770.893,1639.54 C776.852,1647.76 782.713,1654.69 790.156,1660.13 C799.909,1667.26 810.686,1671.26 822.688,1668.58 C836.215,1665.57 843.413,1654.63 839.555,1639.26 C837.092,1629.45 830.817,1621.73 823.744,1614.96 C819.433,1610.83 820.197,1606.26 820.562,1601.63 C820.791,1598.72 823.758,1599.57 825.428,1600.06 C839.945,1604.35 850.637,1613.08 856.361,1627.37 C868.274,1657.12 844.344,1689.68 811.934,1687.76 C791.434,1686.55 773.582,1669.83 771.25,1650.92 C770.828,1647.5 769.884,1644.17 770.893,1639.54" fill="#6E4E25"/>
    <path d="M54.467,1640.44 C57.121,1641.15 57.822,1643.1 58.969,1644.66 C66.304,1654.61 75.304,1662.6 87.006,1666.95 C93.707,1669.43 100.77,1670.79 107.879,1668.45 C122.762,1663.58 127.826,1651.97 122.876,1636.83 C120.026,1628.12 114.482,1620.94 107.817,1614.9 C103.362,1610.87 104.196,1606.17 104.704,1601.58 C105.043,1598.52 108.124,1599.75 110.057,1600.21 C119.648,1602.5 127.311,1607.93 133.478,1615.43 C146.036,1630.71 146.857,1651.77 135.722,1668.26 C120.174,1691.3 87.791,1694.4 68.057,1675.01 C58.34,1665.46 54.275,1654.05 54.467,1640.44" fill="#6E4E25"/>
    <path d="M1571.09,501.971 C1571.01,520.728 1563.94,529.813 1547.78,534.059 C1539.37,536.27 1530.71,536.564 1522.16,537.73 C1518.29,538.257 1519.15,535.847 1519.41,533.799 C1520.73,523.417 1522.23,513.056 1523.42,502.66 C1524.56,492.758 1525.42,482.824 1526.39,472.902 C1526.57,470.953 1526.2,468.779 1529.42,469.073 C1541.16,470.145 1552.43,472.439 1561.6,480.667 C1568.54,486.893 1570.93,494.932 1571.09,501.971" fill="#FEF5E2"/>
    <path d="M775.965,1592.82 C775.965,1585.68 776.158,1578.53 775.883,1571.4 C775.746,1567.88 776.817,1566.77 780.326,1566.89 C787.309,1567.13 794.315,1567.17 801.293,1566.87 C805.052,1566.71 805.68,1568.25 805.548,1571.51 C804.991,1585.3 804.689,1599.11 804.144,1612.9 C803.993,1616.7 805.227,1619.47 808.08,1622.06 C813.758,1627.2 819.041,1632.78 822.514,1639.75 C824.138,1643.01 826.22,1646.49 823.617,1650.01 C820.923,1653.66 816.919,1653.75 812.757,1653.03 C806.983,1652.03 802.027,1649.32 797.768,1645.54 C785.264,1634.47 776.179,1621.63 777.318,1603.79 C777.55,1600.15 777.351,1596.48 777.351,1592.83 C776.889,1592.83 776.427,1592.82 775.965,1592.82" fill="#D1D2D2"/>
    <path d="M74.884,1566.96 C78.213,1566.96 81.577,1567.26 84.862,1566.88 C89.112,1566.39 89.807,1568.33 89.647,1571.99 C89.066,1585.29 88.808,1598.59 88.224,1611.88 C88.035,1616.19 89.189,1619.45 92.519,1622.41 C98.495,1627.73 103.883,1633.66 107.293,1641.06 C108.624,1643.95 109.976,1647.06 107.776,1650.03 C105.322,1653.34 101.664,1653.71 97.872,1653.2 C91.365,1652.33 85.984,1649.08 81.095,1644.96 C72.908,1638.07 67.274,1629.31 62.981,1619.61 C61.515,1616.3 61.849,1612.73 61.672,1609.29 C61.013,1596.5 60.705,1583.7 60.05,1570.92 C59.889,1567.79 60.83,1566.74 63.901,1566.91 C67.552,1567.11 71.222,1566.96 74.884,1566.96" fill="#D1D2D2"/>
    <path d="M1221.17,838.889 C1222.23,841.851 1223.47,844.765 1224.32,847.787 C1225.62,852.365 1227.53,856.226 1233.39,857.052 C1215.84,872.473 1197.45,885.687 1177.21,897.919 C1179.38,878.011 1182.37,859.141 1188.39,840.346 C1194.96,843.762 1201.44,846.505 1208.42,847.817 C1216.23,849.286 1219.68,846.708 1220.44,838.887 C1220.68,838.406 1220.92,838.431 1221.17,838.889" fill="#CCDAB3"/>
    <path d="M954.164,503.616 C954.193,489.271 961.629,478.554 974.696,473.602 C977.369,472.589 978.087,472.946 978.289,475.828 C979.568,494.083 981.438,512.284 984.313,530.359 C985.039,534.921 983.741,535.705 979.507,534.721 C961.664,530.574 954.128,521.454 954.164,503.616" fill="#FEF5E2"/>
    <path d="M1293.09,299.223 C1305.91,300.853 1318.74,302.487 1331.56,304.106 C1333.33,304.329 1334.06,305.288 1334.3,307.048 C1336.01,319.513 1337.81,331.965 1339.72,345.389 C1330.82,341.565 1322.98,336.915 1315.32,331.917 C1307.26,323.501 1300.31,314.248 1294.38,304.225 C1293.49,302.705 1292.09,301.258 1293.09,299.223" fill="#BB9D8D"/>
    <path d="M1221.17,838.889 C1220.92,838.888 1220.68,838.888 1220.44,838.887 C1218.97,834.674 1215.91,832.633 1211.58,831.936 C1205.78,831.003 1200.35,828.973 1195.63,825.368 C1188.36,819.808 1185.91,809.293 1190.07,801.692 C1193.49,795.43 1198.52,795.384 1203.46,800.56 C1212.93,810.474 1216.41,823.065 1220.33,835.539 C1220.68,836.634 1220.89,837.771 1221.17,838.889" fill="#CCDAB3"/>
    <path d="M1256.08,801.572 C1250.34,803.842 1246.1,807.217 1243.48,812.948 C1241.16,818.013 1238.08,822.728 1235.11,828.007 C1230.69,818.591 1230.2,808.353 1223.11,799.786 C1234.61,800.409 1245.34,800.99 1256.08,801.572" fill="#FEF4E1"/>
    <path d="M1293.09,299.223 C1298.46,310.16 1306.12,319.502 1313.75,328.872 C1314.46,329.744 1316.08,330.251 1315.32,331.917 C1300.73,322.249 1287.74,310.775 1275.26,296.731 C1282.04,297.06 1287.57,298.075 1293.09,299.223" fill="#FDFDFD"/>
    <path d="M1054.24,578.675 C1045.14,577.661 1031.07,575.981 1019.32,566.492 C1006.68,556.283 1004.53,543.063 1013.38,529.011 C1021.82,515.599 1034.46,508.507 1050.01,505.832 C1062.88,503.616 1075.03,505.452 1085.85,512.374 C1097.71,519.969 1106.18,530.295 1106.34,545.483 C1106.41,552.576 1102.58,557.954 1098.03,562.479 C1087.45,573.025 1074.88,579.581 1054.24,578.675" fill="#FFE0C5"/>
    <path d="M1433.9,576.005 C1420.51,575.283 1407.68,573.01 1396.67,564.239 C1388.16,557.465 1384.51,545.66 1388.93,535.72 C1397.02,517.525 1412.01,509.4 1431.05,508.009 C1445.37,506.962 1457.94,511.424 1467.9,522.101 C1472.85,527.416 1476.64,533.623 1477.91,540.773 C1479.14,547.713 1476.28,553.869 1471.64,558.986 C1461.57,570.087 1449.47,576.854 1433.9,576.005" fill="#FFE0C5"/>
    <path d="M1242.01,698.903 C1220.27,698.798 1200.62,685.683 1192.29,665.724 C1190.32,661.009 1191.32,657.208 1194.99,655.412 C1198.99,653.458 1202.91,655.025 1205.07,659.769 C1212.41,675.869 1224.87,684.899 1242.54,684.702 C1260.37,684.503 1273.99,676.239 1282.04,659.808 C1284.37,655.046 1288.1,653.45 1292.06,655.432 C1295.69,657.25 1296.66,661.026 1294.71,665.77 C1286.68,685.234 1264.77,699.013 1242.01,698.903" fill="#6E4100"/>
    <path d="M1357.17,444.271 C1356.78,452.615 1354.73,460.55 1349.06,467.148 C1343.06,474.128 1335.27,474.374 1328.69,467.948 C1318.01,457.512 1317.32,436.734 1327.28,425.566 C1334.92,416.993 1347,418.093 1352.91,427.93 C1355.89,432.902 1356.96,438.395 1357.17,444.271" fill="#6E4100"/>
    <path d="M1163.13,445.255 C1162.53,453.086 1160.61,461.409 1154.2,467.98 C1148.34,473.987 1141.38,474.124 1135.25,468.49 C1123.77,457.939 1123.01,436.475 1133.71,425.06 C1141.18,417.088 1152.95,418.317 1158.69,427.669 C1161.53,432.297 1163.19,438.482 1163.13,445.255" fill="#6E4100"/>
    <path d="M1229.83,466.11 C1232.72,466.372 1235.13,467.946 1236.09,471.168 C1237.05,474.349 1238.07,477.403 1239.84,480.313 C1241.76,483.47 1241.19,486.946 1238.15,489.257 C1234.96,491.679 1231.53,491.409 1228.7,488.451 C1224.62,484.172 1223.08,478.671 1222.42,473.048 C1221.99,469.29 1225.63,466.101 1229.83,466.11" fill="#6E4300"/>
  </g>
</svg>
